<svg width="226" height="64" viewBox="0 0 226 64" fill="none" xmlns="http://www.w3.org/2000/svg">
<g clip-path="url(#clip0_4838_38311)">
<path d="M42.2502 61.612H35.0971C33.811 53.9577 30.3023 48.0506 21.9189 46.5648C13.9892 45.1688 4.70572 53.9003 3.07748 55.7051C1.50858 57.4441 2.35303 52.207 2.35303 52.207C2.35303 52.207 -0.667596 48.6159 2.35303 46.6194C5.67109 44.3993 8.5917 43.41 10.9928 40.2232C13.9361 36.4089 15.9667 32.5757 16.9292 27.8577C16.7347 27.8397 19.2314 27.6365 19.0248 27.6156C13.3368 26.982 6.9573 24.9915 2.33805 21.3782C1.62854 20.8223 3.50559 17.732 2.98769 17.0027C0.0987846 12.9381 2.29914 11.6769 3.13438 13.4462C7.88235 23.5151 23.8297 20.6818 24.8296 20.6818C24.8805 26.8296 23.5034 32.5888 20.9169 38.2315C21.0576 38.2524 18.5219 38.3121 18.6686 38.336C25.9223 39.5046 34.2746 42.9327 38.2652 49.0147C40.744 52.7804 42.1484 56.9377 42.2502 61.612Z" fill="#20A4AC"/>
<path d="M18.965 18.1862C22.4734 18.1862 25.3175 15.3468 25.3175 11.8442C25.3175 8.34161 22.4734 5.50219 18.965 5.50219C15.4565 5.50219 12.6124 8.34161 12.6124 11.8442C12.6124 15.3468 15.4565 18.1862 18.965 18.1862Z" fill="#20A4AC"/>
<path d="M2.40392 4.20211H2.30214C1.0307 4.20211 0 5.2311 0 6.50042V61.7017C0 62.9711 1.0307 64 2.30214 64H2.40392C3.67536 64 4.70606 62.9711 4.70606 61.7017V6.50042C4.70606 5.2311 3.67536 4.20211 2.40392 4.20211Z" fill="#53D7DF"/>
<path d="M222.218 37.1435H63.5049C61.4928 37.1435 59.8616 38.772 59.8616 40.7808V59.4661C59.8616 61.4749 61.4928 63.1034 63.5049 63.1034H222.218C224.23 63.1034 225.861 61.4749 225.861 59.4661V40.7808C225.861 38.772 224.23 37.1435 222.218 37.1435Z" fill="#53D7DF"/>
<path d="M73.7283 46.2322C74.541 46.7443 75.1829 47.486 75.5724 48.3631C76.036 49.4201 76.2608 50.566 76.231 51.7195C76.2636 52.8686 76.0311 54.0097 75.5515 55.0548C75.1515 55.9139 74.507 56.6363 73.6984 57.132C72.838 57.6322 71.8509 57.873 70.8564 57.8253C69.8619 57.7776 68.9025 57.4433 68.0942 56.863C67.2081 56.2174 66.6582 55.2421 66.4447 53.9371V63.1034H64.2234V45.8227H66.4447V49.4391C66.5797 48.3332 67.1224 47.3171 67.967 46.5889C68.8115 45.8607 69.8974 45.4725 71.013 45.5C71.9692 45.4829 72.9107 45.7368 73.7283 46.2322ZM72.9918 54.7112C73.6445 53.964 73.9718 52.9458 73.9738 51.6567C73.9758 50.3676 73.6415 49.3524 72.9709 48.6112C72.6351 48.2438 72.2229 47.9542 71.7632 47.7627C71.3034 47.5711 70.8073 47.4823 70.3095 47.5024C69.6352 47.4981 68.9708 47.6647 68.3786 47.9866C67.7746 48.3164 67.2749 48.8081 66.9356 49.4062C66.5521 50.0931 66.3618 50.8707 66.3848 51.6567C66.3638 52.4495 66.566 53.2324 66.9686 53.9161C67.3275 54.5199 67.8451 55.014 68.4654 55.3448C69.0581 55.6628 69.7205 55.8292 70.3934 55.8289C70.8826 55.8484 71.37 55.7581 71.8197 55.5646C72.2694 55.3712 72.67 55.0795 72.9918 54.7112Z" fill="white"/>
<path d="M88.3973 46.6625C89.0799 47.4356 89.4211 48.5833 89.4211 50.1055V57.5085H87.1998V50.6345C87.1998 49.6024 86.9773 48.8174 86.5323 48.2794C86.0872 47.7415 85.4046 47.4725 84.4846 47.4725C83.9279 47.4711 83.3797 47.6076 82.889 47.87C82.3815 48.1387 81.957 48.5407 81.6615 49.0326C81.3344 49.5812 81.1703 50.2115 81.1885 50.8497V57.4996H78.9792V40.2847H81.2005V49.968C81.1773 49.1305 81.3701 48.301 81.7604 47.5592C82.1091 46.9082 82.6408 46.3732 83.2901 46.02C83.9518 45.6635 84.6937 45.4815 85.4456 45.491C86.7229 45.4969 87.7068 45.8875 88.3973 46.6625Z" fill="white"/>
<path d="M102.504 45.8227L96.1031 63.1034H93.8399L95.7589 58.0226L91.1875 45.8197H93.4746L95.6062 51.5222L96.8785 55.527L98.1508 51.5461L100.246 45.8197L102.504 45.8227Z" fill="white"/>
<path d="M111.664 47.8132C110.974 47.4076 110.18 47.2103 109.38 47.2453C108.635 47.2059 107.894 47.3812 107.246 47.7504C107.009 47.8862 106.812 48.0822 106.676 48.3184C106.54 48.5547 106.469 48.8227 106.47 49.0953C106.462 49.271 106.499 49.4458 106.578 49.6029C106.658 49.7599 106.776 49.8939 106.922 49.9919C107.267 50.2257 107.656 50.3864 108.066 50.4642C108.524 50.5658 109.159 50.6674 109.964 50.763C110.879 50.8578 111.786 51.0166 112.679 51.2382C113.348 51.4105 113.964 51.7428 114.475 52.2066C114.734 52.4601 114.934 52.7661 115.064 53.1039C115.194 53.4416 115.249 53.8032 115.227 54.1642C115.254 54.7121 115.132 55.2571 114.874 55.7416C114.616 56.2261 114.232 56.6321 113.763 56.9168C112.785 57.5364 111.463 57.8453 109.796 57.8433C107.872 57.8433 106.367 57.4956 105.282 56.8002C104.196 56.1048 103.653 55.0538 103.653 53.6471H105.958C105.962 54.0289 106.073 54.402 106.278 54.7241C106.484 55.0463 106.775 55.3047 107.12 55.4702C107.983 55.8959 108.939 56.1012 109.901 56.068C110.907 56.068 111.664 55.9006 112.176 55.5719C112.415 55.4309 112.611 55.2288 112.746 54.9866C112.88 54.7444 112.947 54.4708 112.94 54.1941C112.948 54.0001 112.908 53.8071 112.824 53.6323C112.739 53.4576 112.612 53.3066 112.455 53.1928C112.088 52.9391 111.674 52.7641 111.236 52.6788C110.748 52.5712 110.081 52.4576 109.233 52.344C108.344 52.2487 107.462 52.094 106.593 51.8808C105.944 51.7194 105.344 51.4024 104.845 50.9573C104.597 50.7172 104.404 50.4265 104.28 50.1051C104.155 49.7837 104.102 49.4393 104.123 49.0953C104.116 48.4165 104.341 47.7556 104.761 47.2214C105.238 46.6381 105.868 46.1992 106.581 45.9542C107.479 45.6336 108.429 45.4797 109.383 45.4999C111.151 45.4999 112.502 45.8486 113.436 46.546C113.883 46.8583 114.244 47.2763 114.489 47.7624C114.733 48.2486 114.853 48.7877 114.838 49.3315H112.574C112.567 49.0214 112.479 48.7186 112.32 48.4525C112.16 48.1864 111.934 47.9661 111.664 47.8132Z" fill="white"/>
<path d="M118.67 40.9721C118.8 40.835 118.957 40.7267 119.132 40.6541C119.307 40.5815 119.495 40.5463 119.684 40.5507C119.87 40.5482 120.054 40.5844 120.224 40.6569C120.395 40.7295 120.549 40.8368 120.675 40.9721C120.807 41.1029 120.912 41.259 120.982 41.431C121.053 41.603 121.088 41.7875 121.085 41.9733C121.085 42.3442 120.938 42.7 120.675 42.9623C120.412 43.2246 120.056 43.372 119.684 43.372C119.496 43.3765 119.309 43.3424 119.135 43.272C118.96 43.2016 118.802 43.0963 118.67 42.9625C118.537 42.8343 118.433 42.6803 118.362 42.5102C118.292 42.3401 118.257 42.1574 118.259 41.9733C118.257 41.7875 118.292 41.603 118.362 41.431C118.433 41.259 118.537 41.1029 118.67 40.9721ZM120.783 45.8227V57.5085H118.562V45.8227H120.783Z" fill="white"/>
<path d="M132.97 46.265C133.899 46.7602 134.666 47.5112 135.179 48.4289C135.726 49.4157 136.002 50.5292 135.979 51.6567C136.002 52.7937 135.727 53.917 135.179 54.9143C134.672 55.8326 133.909 56.5842 132.982 57.0782C131.996 57.5733 130.907 57.8312 129.803 57.8312C128.699 57.8312 127.61 57.5733 126.624 57.0782C125.697 56.5836 124.933 55.8322 124.423 54.9143C123.878 53.9162 123.604 52.7932 123.627 51.6567C123.604 50.5296 123.879 49.4165 124.423 48.4289C124.939 47.5117 125.706 46.7609 126.635 46.265C127.615 45.7622 128.701 45.4998 129.803 45.4998C130.905 45.4998 131.99 45.7622 132.97 46.265ZM127.776 47.8999C127.178 48.2533 126.696 48.7724 126.387 49.3942C126.042 50.0967 125.872 50.8716 125.89 51.6537C125.89 52.9567 126.253 53.9968 126.98 54.7739C127.342 55.1577 127.782 55.4597 128.27 55.6597C128.759 55.8598 129.284 55.9531 129.812 55.9335C130.523 55.9478 131.224 55.7658 131.839 55.4075C132.433 55.0517 132.912 54.533 133.219 53.9131C133.547 53.205 133.717 52.434 133.717 51.6537C133.717 50.8733 133.547 50.1024 133.219 49.3942C132.911 48.7745 132.432 48.2559 131.839 47.8999C131.224 47.5429 130.523 47.361 129.812 47.3738C129.098 47.362 128.394 47.5438 127.776 47.8999Z" fill="white"/>
<path d="M145.095 55.3776V57.3352C144.786 57.498 144.457 57.6176 144.116 57.6908C143.723 57.7835 143.321 57.8307 142.918 57.8313C141.697 57.8313 140.785 57.5155 140.182 56.8839C139.579 56.2523 139.28 55.2411 139.284 53.8504V47.6309H137.021V45.8377H139.284V41.6714H141.505V45.8227H144.241V47.6159H141.484V53.5933C141.484 54.3903 141.66 54.9462 142.011 55.261C142.438 55.6091 142.982 55.7822 143.532 55.7452C144.076 55.7591 144.614 55.6325 145.095 55.3776Z" fill="white"/>
<path d="M156.854 46.6625C157.536 47.4356 157.878 48.5833 157.878 50.1055V57.5085H155.656V50.6345C155.656 49.6024 155.434 48.8174 154.989 48.2794C154.544 47.7415 153.861 47.4725 152.941 47.4725C152.384 47.4711 151.836 47.6076 151.345 47.87C150.838 48.1387 150.413 48.5407 150.118 49.0326C149.79 49.581 149.625 50.2112 149.642 50.8497V57.4996H147.424V40.2847H149.63V49.968C149.608 49.1302 149.801 48.3007 150.193 47.5592C150.541 46.9076 151.073 46.3723 151.723 46.02C152.384 45.6635 153.126 45.4815 153.878 45.491C155.179 45.4969 156.171 45.8875 156.854 46.6625Z" fill="white"/>
<path d="M169.053 55.1714C169.668 54.6168 170.074 53.8692 170.206 53.0524H172.427C172.283 54.3872 171.653 55.6229 170.658 56.5253C169.682 57.396 168.368 57.8304 166.715 57.8284C165.583 57.8549 164.461 57.6034 163.449 57.0961C162.537 56.6245 161.792 55.8849 161.314 54.9771C160.797 53.9544 160.542 52.8198 160.572 51.6746C160.546 50.5379 160.805 49.4128 161.326 48.402C161.801 47.4967 162.529 46.7489 163.422 46.2501C164.375 45.7364 165.444 45.477 166.526 45.497C168.353 45.497 169.793 46.035 170.849 47.1109C171.905 48.1868 172.447 49.7011 172.475 51.6537H162.82V51.7613C162.82 53.0524 163.158 54.0666 163.832 54.8038C164.507 55.541 165.463 55.9106 166.7 55.9126C167.549 55.9595 168.385 55.696 169.053 55.1714ZM164.042 48.3602C163.352 49.0508 162.938 49.9688 162.877 50.9424H170.206C170.152 49.984 169.758 49.0761 169.095 48.3811C168.759 48.0536 168.358 47.7986 167.919 47.632C167.48 47.4654 167.011 47.3908 166.541 47.4127C166.083 47.3985 165.625 47.4751 165.196 47.6383C164.767 47.8014 164.375 48.0478 164.042 48.3631V48.3602Z" fill="white"/>
<path d="M178.462 46.6626C179.151 45.8895 180.128 45.5019 181.393 45.4999V47.8042H180.896C178.583 47.8042 177.427 48.9001 177.427 51.0918V57.5055H175.205V45.8197H177.427V50.0039C177.427 48.5514 177.772 47.4376 178.462 46.6626Z" fill="white"/>
<path d="M194.712 45.8227V57.5086H192.493V54.0865C192.278 55.3517 191.796 56.2912 191.048 56.9049C190.227 57.5477 189.203 57.8764 188.162 57.8314C187.169 57.8505 186.189 57.6016 185.327 57.1111C184.484 56.6124 183.808 55.8749 183.387 54.9921C182.896 53.9501 182.656 52.8078 182.686 51.6567C182.654 50.5046 182.906 49.3622 183.42 48.3303C183.864 47.4524 184.552 46.7208 185.401 46.2232C186.247 45.7381 187.207 45.4884 188.183 45.5C189.224 45.4548 190.246 45.7883 191.059 46.4384C191.8 47.0601 192.278 48.0175 192.493 49.3106V45.8227H194.712ZM191.565 54.765C192.242 54.0118 192.58 52.9827 192.58 51.6776C192.58 50.3427 192.246 49.2986 191.577 48.5455C191.24 48.1694 190.824 47.8729 190.358 47.6775C189.892 47.4821 189.388 47.3927 188.883 47.4157C188.353 47.3944 187.825 47.4851 187.333 47.6819C186.841 47.8786 186.396 48.177 186.027 48.5574C185.303 49.3165 184.94 50.3496 184.94 51.6567C184.94 52.9638 185.303 53.9959 186.027 54.753C186.396 55.1334 186.841 55.4318 187.333 55.6285C187.825 55.8253 188.353 55.916 188.883 55.8947C189.386 55.9155 189.887 55.825 190.351 55.6297C190.815 55.4344 191.229 55.1391 191.565 54.765Z" fill="white"/>
<path d="M207.839 46.2322C208.651 46.7451 209.293 47.4866 209.683 48.3631C210.146 49.4203 210.37 50.5662 210.339 51.7194C210.372 52.8683 210.141 54.0095 209.662 55.0548C209.261 55.914 208.616 56.6364 207.806 57.132C206.946 57.6322 205.959 57.873 204.964 57.8253C203.97 57.7775 203.011 57.4433 202.202 56.863C201.318 56.2174 200.769 55.2421 200.556 53.937V63.1034H198.334V45.8227H200.556V49.439C200.687 48.3318 201.229 47.3137 202.074 46.5849C202.92 45.856 204.008 45.469 205.124 45.4999C206.08 45.4829 207.022 45.7368 207.839 46.2322ZM207.109 54.7111C207.761 53.9639 208.088 52.9458 208.088 51.6567C208.088 50.3675 207.754 49.3524 207.088 48.6112C206.751 48.2437 206.339 47.9541 205.878 47.7626C205.418 47.571 204.922 47.4822 204.423 47.5024C203.75 47.4984 203.087 47.665 202.496 47.9865C201.892 48.3164 201.392 48.8081 201.053 49.4062C200.669 50.093 200.479 50.8706 200.502 51.6567C200.481 52.4491 200.682 53.2315 201.083 53.9161C201.443 54.5185 201.96 55.0122 202.579 55.3447C203.172 55.6628 203.834 55.8291 204.507 55.8289C204.997 55.8475 205.484 55.7568 205.935 55.5635C206.385 55.3701 206.786 55.0789 207.109 54.7111Z" fill="white"/>
<path d="M222.583 45.8227L216.182 63.1034H213.919L215.835 58.0226L211.267 45.8197H213.551L215.685 51.5222L216.958 55.527L218.23 51.5461L220.326 45.8197L222.583 45.8227Z" fill="white"/>
<path d="M57.5804 21.2526H51.5751V33.0759H47.2672V3.46689H58.739C62.0799 3.46689 64.6475 4.26388 66.4417 5.85785C68.2359 7.45182 69.134 9.6017 69.136 12.3075C69.136 14.4334 68.5772 16.2326 67.4595 17.7051C66.3419 19.1775 64.7333 20.1906 62.6337 20.7446L70.7166 33.064H65.328L57.5804 21.2526ZM51.5751 17.2836H58.7809C60.6849 17.2836 62.1477 16.8632 63.1696 16.0224C64.1914 15.1816 64.7024 13.9612 64.7024 12.3613C64.7024 10.7653 64.1904 9.54292 63.1696 8.7031C62.1487 7.86327 60.6849 7.44186 58.7809 7.44186H51.5751V17.2836Z" fill="#20A4AC"/>
<path d="M89.1996 28.5899C90.3192 27.6395 91.0577 26.2826 91.4149 24.5193H95.6809C95.2957 27.3087 94.1641 29.5343 92.2861 31.196C90.408 32.8578 87.8814 33.6916 84.7061 33.6976C82.3111 33.6976 80.2156 33.2293 78.4193 32.2929C76.6686 31.3847 75.2384 29.9631 74.321 28.2193C73.365 26.44 72.888 24.324 72.89 21.8713C72.8417 19.691 73.3409 17.5333 74.342 15.595C75.2608 13.8513 76.671 12.4144 78.3984 11.4617C80.2291 10.474 82.2844 9.97569 84.3648 10.0151C87.8694 10.0151 90.6366 11.0482 92.6663 13.1144C94.696 15.1806 95.7388 18.0886 95.7947 21.8384H77.2339V22.0476C77.2339 24.5282 77.8825 26.4779 79.1797 27.8965C80.477 29.3151 82.3132 30.0255 84.6882 30.0274C86.5782 30.0215 88.0819 29.5423 89.1996 28.5899ZM79.5779 15.5054C78.3066 16.7188 77.5612 18.3725 77.3417 20.4666H91.4119C91.2124 18.4243 90.5018 16.7845 89.2804 15.5472C88.059 14.3099 86.4215 13.6892 84.3678 13.6853C82.4399 13.6853 80.8433 14.292 79.5779 15.5054Z" fill="#20A4AC"/>
<path d="M119.062 12.2387C120.373 13.7271 121.029 15.9318 121.029 18.8527V33.0759H116.763V19.8868C116.763 17.8943 116.334 16.385 115.478 15.3589C114.622 14.3328 113.311 13.8168 111.545 13.8108C110.475 13.8083 109.422 14.0712 108.479 14.5759C107.503 15.0922 106.687 15.864 106.117 16.8085C105.493 17.865 105.182 19.0763 105.219 20.3022V33.0759H100.953V10.6398H105.219V18.6196C105.176 17.0099 105.547 15.416 106.297 13.9901C106.968 12.7407 107.99 11.7135 109.236 11.0343C110.508 10.3515 111.933 10.0029 113.377 10.0211C115.855 10.0112 117.75 10.7504 119.062 12.2387Z" fill="#20A4AC"/>
<path d="M146.166 11.4108C147.727 12.3958 148.959 13.8207 149.708 15.5054C150.55 17.2986 150.971 19.4484 150.971 21.955C150.971 24.4615 150.536 26.5974 149.666 28.3627C148.9 30.0151 147.66 31.4036 146.104 32.3527C144.45 33.3167 142.551 33.781 140.638 33.6892C138.725 33.5975 136.88 32.9536 135.326 31.8356C133.628 30.5943 132.572 28.7204 132.159 26.2139V43.8143H127.893V10.6398H132.159V17.5735C132.572 15.1467 133.594 13.2788 135.225 11.9697C136.839 10.6652 138.863 9.97005 140.94 10.0062C142.78 9.97135 144.592 10.4584 146.166 11.4108ZM144.738 27.7022C145.992 26.2677 146.62 24.3101 146.622 21.8294C146.624 19.3488 145.982 17.3992 144.697 15.9806C143.413 14.5619 141.708 13.8516 139.58 13.8496C138.286 13.8423 137.011 14.1632 135.874 14.7821C134.713 15.4169 133.753 16.3617 133.099 17.5108C132.366 18.8297 132.002 20.3215 132.045 21.8294C132.002 23.3561 132.39 24.864 133.165 26.181C133.856 27.3425 134.852 28.2933 136.045 28.9306C137.184 29.5431 138.457 29.8625 139.751 29.8601C141.821 29.8541 143.483 29.1348 144.738 27.7022Z" fill="#20A4AC"/>
<path d="M174.349 12.2387C175.66 13.7271 176.316 15.9317 176.316 18.8527V33.0759H172.053V19.8868C172.053 17.8943 171.625 16.385 170.769 15.3589C169.912 14.3328 168.6 13.8167 166.832 13.8108C165.763 13.8084 164.711 14.0713 163.769 14.5759C162.794 15.0922 161.977 15.864 161.407 16.8084C160.784 17.865 160.472 19.0763 160.509 20.3022V33.0759H156.243V7.62939e-06H160.509V18.6047C160.467 16.9953 160.837 15.4018 161.584 13.9751C162.257 12.7261 163.28 11.6992 164.527 11.0193C165.798 10.3366 167.223 9.98792 168.667 10.0062C171.144 10.0062 173.038 10.7503 174.349 12.2387Z" fill="#20A4AC"/>
<path d="M201.457 10.6398L189.147 43.8143H184.806L188.494 34.0562L179.714 10.6398H184.102L188.204 21.5963L190.647 29.2892L193.089 21.6382L197.107 10.6398H201.457Z" fill="#20A4AC"/>
<path d="M219.057 14.4504C217.925 13.7211 216.462 13.3555 214.668 13.3535C212.928 13.3535 211.56 13.6773 210.566 14.3248C209.573 14.9724 209.074 15.8341 209.07 16.9101C209.059 17.243 209.134 17.5731 209.286 17.8695C209.439 18.1659 209.664 18.4188 209.941 18.6047C210.603 19.0537 211.349 19.3639 212.135 19.5162C213.019 19.7155 214.234 19.9077 215.778 20.093C217.537 20.2712 219.282 20.5708 220.999 20.9896C222.293 21.3224 223.485 21.9657 224.472 22.8636C225.436 23.7482 225.919 25.0025 225.921 26.6263C225.921 28.9695 224.982 30.7338 223.104 31.9193C221.226 33.1048 218.688 33.6976 215.491 33.6976C211.791 33.6976 208.897 33.0291 206.809 31.6922C204.722 30.3552 203.68 28.3359 203.684 25.6341H208.115C208.112 26.3695 208.316 27.0909 208.704 27.716C209.092 28.3412 209.648 28.8449 210.309 29.1697C211.72 29.9288 213.501 30.3074 215.653 30.3054C217.584 30.3054 219.042 30.0065 220.023 29.355C220.482 29.0845 220.86 28.6968 221.118 28.2319C221.377 27.7669 221.506 27.2416 221.493 26.71C221.51 26.3374 221.434 25.9664 221.271 25.6307C221.108 25.2951 220.863 25.0055 220.559 24.7883C219.858 24.2973 219.062 23.9592 218.221 23.796C217.281 23.5968 215.997 23.3826 214.368 23.1535C212.654 22.9678 210.954 22.6683 209.279 22.2568C208.033 21.9465 206.882 21.3359 205.926 20.4786C205 19.6377 204.537 18.4423 204.537 16.8921C204.523 15.5926 204.954 14.3272 205.759 13.3057C206.676 12.184 207.888 11.3387 209.258 10.8639C210.987 10.2515 212.813 9.95778 214.647 9.99719C218.04 9.99719 220.634 10.6657 222.43 12.0026C223.286 12.6045 223.98 13.408 224.45 14.3417C224.92 15.2755 225.152 16.3107 225.125 17.3554H220.775C220.769 16.1539 220.188 15.1796 219.057 14.4504Z" fill="#20A4AC"/>
</g>
<defs>
<clipPath id="clip0_4838_38311">
<rect width="225.933" height="64" fill="white"/>
</clipPath>
</defs>
</svg>
