<svg width="170" height="48" viewBox="0 0 170 48" fill="none" xmlns="http://www.w3.org/2000/svg">
<g clip-path="url(#clip0_4900_38780)">
<path d="M31.4757 46.209H26.226C26.1678 45.8616 26.087 45.5366 26.0601 45.1869C25.6656 39.9574 21.5771 35.1986 16.1099 34.2281C15.1438 34.0577 14.1418 34.0891 13.1556 34.0039C12.5862 33.9591 12.2253 34.2281 11.8757 34.6585C9.26954 37.9475 6.01067 40.6615 2.30424 42.6293C1.68333 42.9611 1.7618 40.4842 1.7618 40.4842C1.7618 40.4842 -0.499919 38.2426 1.7618 36.7453C4.24623 35.0802 6.43306 33.0093 8.2309 30.6192C10.4347 27.7585 11.9551 24.4317 12.6759 20.8932C12.5302 20.8798 14.3996 20.7274 14.245 20.7117C9.98602 20.2365 5.20929 18.7436 1.75058 16.0336C1.21934 15.6167 2.62479 13.299 2.23701 12.752C0.0739157 9.70356 1.72145 8.75764 2.34684 10.0846C5.90193 17.6363 17.8426 15.5113 18.5913 15.5113C18.6294 20.1222 17.5983 24.4416 15.6616 28.6736C15.767 28.6893 13.8684 28.7341 13.9782 28.752C19.4095 29.6285 25.6634 32.1995 28.6514 36.761C30.5074 39.5853 31.3995 42.7033 31.4757 46.209Z" fill="white"/>
<path d="M14.2002 13.6396C16.8271 13.6396 18.9567 11.5101 18.9567 8.8831C18.9567 6.25615 16.8271 4.12659 14.2002 4.12659C11.5732 4.12659 9.4436 6.25615 9.4436 8.8831C9.4436 11.5101 11.5732 13.6396 14.2002 13.6396Z" fill="white"/>
<path d="M1.79996 3.15161H1.72375C0.771749 3.15161 0 3.92335 0 4.87534V46.2763C0 47.2283 0.771749 48 1.72375 48H1.79996C2.75196 48 3.52371 47.2283 3.52371 46.2763V4.87534C3.52371 3.92335 2.75196 3.15161 1.79996 3.15161Z" fill="#53D7DF"/>
<path d="M166.388 27.8577H47.5499C46.0432 27.8577 44.8219 29.079 44.8219 30.5856V44.5996C44.8219 46.1062 46.0432 47.3275 47.5499 47.3275H166.388C167.894 47.3275 169.116 46.1062 169.116 44.5996V30.5856C169.116 29.079 167.894 27.8577 166.388 27.8577Z" fill="#53D7DF"/>
<path d="M55.2048 34.6741C55.8133 35.0582 56.294 35.6144 56.5856 36.2723C56.9327 37.065 57.1011 37.9244 57.0788 38.7895C57.1031 39.6514 56.929 40.5073 56.5699 41.2911C56.2704 41.9353 55.7879 42.4772 55.1824 42.8489C54.5382 43.2241 53.7991 43.4047 53.0545 43.3689C52.3098 43.3331 51.5915 43.0824 50.9862 42.6472C50.3227 42.163 49.911 41.4315 49.7511 40.4527V47.3275H48.0879V34.367H49.7511V37.0793C49.8523 36.2498 50.2586 35.4878 50.891 34.9416C51.5233 34.3954 52.3364 34.1043 53.1717 34.1249C53.8877 34.1121 54.5926 34.3026 55.2048 34.6741ZM54.6534 41.0333C55.142 40.4729 55.3871 39.7093 55.3886 38.7425C55.3901 37.7756 55.1398 37.0142 54.6377 36.4583C54.3863 36.1828 54.0776 35.9656 53.7334 35.8219C53.3892 35.6783 53.0177 35.6117 52.645 35.6268C52.1401 35.6235 51.6426 35.7484 51.1992 35.9899C50.7469 36.2373 50.3727 36.606 50.1187 37.0546C49.8316 37.5697 49.6891 38.1529 49.7063 38.7425C49.6906 39.3371 49.842 39.9242 50.1434 40.4371C50.4121 40.8899 50.7997 41.2604 51.2642 41.5085C51.7079 41.7471 52.2039 41.8718 52.7077 41.8716C53.0741 41.8862 53.439 41.8185 53.7758 41.6734C54.1125 41.5283 54.4124 41.3096 54.6534 41.0333Z" fill="#20A4AC"/>
<path d="M66.1884 34.9969C66.6994 35.5767 66.955 36.4375 66.955 37.5791V43.1314H65.2917V37.9759C65.2917 37.2018 65.1251 36.6131 64.7919 36.2096C64.4586 35.8061 63.9476 35.6044 63.2587 35.6044C62.8419 35.6033 62.4314 35.7057 62.0639 35.9025C61.6839 36.1041 61.3661 36.4056 61.1449 36.7744C60.8999 37.1859 60.7771 37.6586 60.7907 38.1373V43.1247H59.1365V30.2135H60.7997V37.476C60.7823 36.8479 60.9267 36.2257 61.2189 35.6694C61.48 35.1812 61.8781 34.7799 62.3643 34.515C62.8598 34.2477 63.4153 34.1111 63.9782 34.1182C64.9346 34.1227 65.6713 34.4156 66.1884 34.9969Z" fill="#20A4AC"/>
<path d="M76.7505 34.3671L71.9581 47.3276H70.2634L71.7003 43.517L68.2775 34.3649H69.99L71.586 38.6417L72.5386 41.6453L73.4913 38.6596L75.0604 34.3649L76.7505 34.3671Z" fill="#20A4AC"/>
<path d="M83.6096 35.8599C83.0926 35.5557 82.4986 35.4078 81.8993 35.434C81.3413 35.4044 80.7865 35.5359 80.3011 35.8128C80.1238 35.9147 79.9767 36.0617 79.8747 36.2388C79.7727 36.416 79.7195 36.6171 79.7205 36.8215C79.7143 36.9533 79.7422 37.0844 79.8015 37.2022C79.8608 37.32 79.9495 37.4205 80.059 37.494C80.3172 37.6693 80.6086 37.7898 80.9152 37.8482C81.2582 37.9244 81.7334 38.0006 82.3364 38.0723C83.0216 38.1433 83.701 38.2624 84.3695 38.4287C84.8702 38.5579 85.3318 38.8072 85.7144 39.155C85.9079 39.3451 86.0582 39.5746 86.1553 39.8279C86.2524 40.0812 86.2939 40.3524 86.2771 40.6232C86.2972 41.0341 86.206 41.4428 86.0131 41.8062C85.8201 42.1696 85.5326 42.4741 85.1809 42.6876C84.4487 43.1524 83.4587 43.384 82.2109 43.3825C80.7703 43.3825 79.6436 43.1217 78.8306 42.6002C78.0177 42.0787 77.6112 41.2904 77.6112 40.2354H79.3372C79.3403 40.5217 79.4233 40.8015 79.577 41.0431C79.7307 41.2847 79.9489 41.4786 80.2069 41.6027C80.8534 41.9219 81.5688 42.076 82.2893 42.051C83.0425 42.051 83.6096 41.9255 83.9929 41.6789C84.1715 41.5732 84.3188 41.4217 84.4192 41.24C84.5197 41.0583 84.5699 40.8531 84.5645 40.6456C84.5709 40.5001 84.5411 40.3554 84.4777 40.2243C84.4143 40.0932 84.3194 39.9799 84.2014 39.8947C83.9273 39.7044 83.6166 39.5731 83.2891 39.5091C82.9237 39.4284 82.4238 39.3432 81.7895 39.2581C81.1234 39.1866 80.4629 39.0705 79.8124 38.9106C79.3263 38.7896 78.8769 38.5518 78.5033 38.218C78.318 38.0379 78.1738 37.8199 78.0805 37.5789C77.9873 37.3378 77.9472 37.0795 77.9631 36.8215C77.9581 36.3124 78.1265 35.8168 78.4406 35.4161C78.7976 34.9786 79.2695 34.6494 79.8034 34.4657C80.4762 34.2253 81.1873 34.1098 81.9016 34.125C83.2256 34.125 84.2373 34.3865 84.9366 34.9095C85.2707 35.1438 85.5414 35.4572 85.7244 35.8218C85.9075 36.1865 85.9973 36.5908 85.9856 36.9986H84.291C84.2856 36.7661 84.22 36.539 84.1005 36.3394C83.9811 36.1398 83.8119 35.9746 83.6096 35.8599Z" fill="#20A4AC"/>
<path d="M88.8548 30.729C88.9524 30.6262 89.0704 30.545 89.2013 30.4906C89.3322 30.4361 89.473 30.4097 89.6147 30.413C89.7536 30.4111 89.8913 30.4383 90.0191 30.4927C90.1468 30.5471 90.2618 30.6276 90.3567 30.729C90.4557 30.8272 90.5339 30.9442 90.5866 31.0732C90.6394 31.2023 90.6656 31.3406 90.6637 31.48C90.6637 31.7582 90.5532 32.025 90.3565 32.2217C90.1598 32.4185 89.8929 32.529 89.6147 32.529C89.4738 32.5323 89.3337 32.5068 89.203 32.454C89.0723 32.4012 88.9539 32.3222 88.8548 32.2219C88.7558 32.1257 88.6774 32.0102 88.6246 31.8826C88.5718 31.7551 88.5456 31.618 88.5477 31.48C88.5459 31.3406 88.5721 31.2023 88.6249 31.0732C88.6776 30.9442 88.7558 30.8272 88.8548 30.729ZM90.4373 34.367V43.1314H88.7741V34.367H90.4373Z" fill="#20A4AC"/>
<path d="M99.5627 34.6988C100.258 35.0701 100.832 35.6334 101.217 36.3216C101.626 37.0618 101.833 37.8969 101.815 38.7425C101.833 39.5952 101.627 40.4377 101.217 41.1857C100.837 41.8744 100.265 42.4382 99.5716 42.8086C98.8331 43.18 98.0179 43.3734 97.1912 43.3734C96.3645 43.3734 95.5492 43.18 94.8106 42.8086C94.1165 42.4377 93.5445 41.8741 93.1631 41.1857C92.755 40.4371 92.5494 39.5949 92.5668 38.7425C92.5499 37.8972 92.7555 37.0624 93.1631 36.3216C93.5492 35.6338 94.1239 35.0707 94.8196 34.6988C95.5532 34.3216 96.3662 34.1249 97.1912 34.1249C98.0161 34.1249 98.8291 34.3216 99.5627 34.6988ZM95.6736 35.9249C95.2258 36.19 94.8645 36.5793 94.6336 37.0456C94.3754 37.5725 94.2478 38.1537 94.2614 38.7402C94.2614 39.7175 94.5334 40.4976 95.0774 41.0804C95.3483 41.3682 95.6777 41.5948 96.0435 41.7448C96.4092 41.8948 96.8028 41.9648 97.1979 41.9501C97.7304 41.9609 98.2556 41.8243 98.7154 41.5556C99.1602 41.2888 99.5188 40.8997 99.7487 40.4348C99.9945 39.9037 100.122 39.3255 100.122 38.7402C100.122 38.155 99.9945 37.5768 99.7487 37.0456C99.5186 36.5809 99.16 36.1919 98.7154 35.9249C98.2551 35.6572 97.7303 35.5208 97.1979 35.5304C96.6635 35.5215 96.1366 35.6578 95.6736 35.9249Z" fill="#20A4AC"/>
<path d="M108.641 41.5332V43.0014C108.41 43.1235 108.163 43.2132 107.908 43.2681C107.614 43.3376 107.313 43.373 107.011 43.3735C106.097 43.3735 105.414 43.1366 104.963 42.6629C104.511 42.1892 104.287 41.4308 104.29 40.3878V35.7231H102.595V34.3782H104.29V31.2535H105.953V34.367H108.002V35.7119H105.938V40.195C105.938 40.7927 106.069 41.2096 106.332 41.4457C106.652 41.7068 107.059 41.8366 107.471 41.8089C107.878 41.8193 108.281 41.7243 108.641 41.5332Z" fill="#20A4AC"/>
<path d="M117.446 34.9969C117.957 35.5767 118.212 36.4375 118.212 37.5791V43.1314H116.549V37.9759C116.549 37.2018 116.383 36.6131 116.049 36.2096C115.716 35.8061 115.205 35.6044 114.516 35.6044C114.099 35.6033 113.689 35.7057 113.321 35.9025C112.941 36.1041 112.624 36.4056 112.402 36.7744C112.157 37.1857 112.033 37.6584 112.046 38.1373V43.1247H110.385V30.2135H112.037V37.476C112.02 36.8477 112.165 36.2255 112.458 35.6694C112.719 35.1807 113.117 34.7793 113.604 34.515C114.099 34.2477 114.655 34.1111 115.218 34.1182C116.192 34.1227 116.935 34.4156 117.446 34.9969Z" fill="#20A4AC"/>
<path d="M126.58 41.3786C127.04 40.9626 127.345 40.4019 127.443 39.7893H129.106C128.998 40.7904 128.527 41.7172 127.782 42.394C127.051 43.047 126.067 43.3728 124.829 43.3713C123.982 43.3912 123.142 43.2026 122.384 42.8221C121.701 42.4684 121.143 41.9137 120.786 41.2329C120.399 40.4658 120.208 39.6149 120.23 38.756C120.21 37.9035 120.404 37.0596 120.795 36.3015C121.15 35.6225 121.695 35.0617 122.364 34.6876C123.077 34.3023 123.878 34.1077 124.688 34.1228C126.056 34.1228 127.134 34.5262 127.925 35.3332C128.715 36.1401 129.121 37.2758 129.142 38.7403H121.913V38.821C121.913 39.7893 122.166 40.55 122.671 41.1029C123.176 41.6558 123.892 41.933 124.818 41.9345C125.454 41.9696 126.08 41.772 126.58 41.3786ZM122.828 36.2701C122.311 36.7881 122.001 37.4766 121.956 38.2068H127.443C127.403 37.488 127.108 36.8071 126.611 36.2858C126.36 36.0402 126.06 35.849 125.731 35.724C125.402 35.5991 125.051 35.5431 124.699 35.5596C124.356 35.5489 124.013 35.6064 123.692 35.7287C123.371 35.8511 123.077 36.0358 122.828 36.2724V36.2701Z" fill="#20A4AC"/>
<path d="M133.625 34.997C134.141 34.4171 134.872 34.1265 135.82 34.125V35.8532H135.448C133.716 35.8532 132.85 36.6751 132.85 38.3189V43.1292H131.186V34.3648H132.85V37.503C132.85 36.4136 133.108 35.5783 133.625 34.997Z" fill="#20A4AC"/>
<path d="M145.792 34.3671V43.1314H144.131V40.5649C143.97 41.5138 143.609 42.2184 143.049 42.6786C142.435 43.1608 141.668 43.4073 140.888 43.3735C140.145 43.3878 139.411 43.2012 138.765 42.8333C138.134 42.4593 137.628 41.9061 137.313 41.2441C136.945 40.4625 136.765 39.6059 136.788 38.7425C136.764 37.8785 136.952 37.0217 137.337 36.2477C137.67 35.5893 138.185 35.0406 138.821 34.6674C139.454 34.3036 140.173 34.1163 140.904 34.125C141.683 34.0911 142.449 34.3412 143.058 34.8288C143.612 35.2951 143.97 36.0131 144.131 36.9829V34.3671H145.792ZM143.437 41.0737C143.943 40.5088 144.196 39.737 144.196 38.7582C144.196 37.757 143.946 36.974 143.446 36.4091C143.193 36.1271 142.881 35.9047 142.532 35.7581C142.183 35.6116 141.806 35.5445 141.428 35.5618C141.031 35.5458 140.636 35.6139 140.267 35.7614C139.899 35.909 139.566 36.1328 139.29 36.4181C138.747 36.9874 138.476 37.7622 138.476 38.7425C138.476 39.7228 138.747 40.4969 139.29 41.0647C139.566 41.35 139.899 41.5738 140.267 41.7214C140.636 41.8689 141.031 41.937 141.428 41.921C141.805 41.9366 142.18 41.8687 142.527 41.7223C142.874 41.5758 143.185 41.3543 143.437 41.0737Z" fill="#20A4AC"/>
<path d="M155.622 34.6741C156.23 35.0588 156.71 35.6149 157.002 36.2723C157.349 37.0652 157.516 37.9246 157.493 38.7896C157.518 39.6512 157.345 40.5071 156.987 41.2911C156.686 41.9355 156.203 42.4773 155.597 42.849C154.953 43.2241 154.214 43.4047 153.469 43.3689C152.724 43.3331 152.006 43.0825 151.401 42.6472C150.739 42.163 150.328 41.4316 150.168 40.4528V47.3275H148.505V34.367H150.168V37.0793C150.267 36.2488 150.672 35.4853 151.305 34.9386C151.938 34.392 152.753 34.1018 153.589 34.1249C154.304 34.1122 155.009 34.3026 155.622 34.6741ZM155.075 41.0333C155.563 40.4729 155.808 39.7093 155.808 38.7425C155.808 37.7756 155.558 37.0143 155.059 36.4584C154.807 36.1828 154.498 35.9656 154.153 35.8219C153.809 35.6783 153.437 35.6117 153.064 35.6268C152.56 35.6238 152.063 35.7487 151.62 35.9899C151.168 36.2373 150.794 36.606 150.54 37.0546C150.253 37.5698 150.11 38.153 150.128 38.7425C150.112 39.3368 150.263 39.9236 150.562 40.4371C150.832 40.8889 151.22 41.2591 151.683 41.5085C152.127 41.7471 152.623 41.8718 153.127 41.8717C153.493 41.8856 153.858 41.8176 154.195 41.6726C154.532 41.5276 154.833 41.3092 155.075 41.0333Z" fill="#20A4AC"/>
<path d="M166.661 34.3671L161.869 47.3276H160.174L161.609 43.517L158.188 34.3649H159.898L161.497 38.6417L162.449 41.6453L163.402 38.6596L164.971 34.3649L166.661 34.3671Z" fill="#20A4AC"/>
<path d="M43.1139 15.9395H38.6173V24.807H35.3917V2.60022H43.9813C46.4829 2.60022 48.4054 3.19796 49.7488 4.39344C51.0923 5.58892 51.7648 7.20133 51.7662 9.23065C51.7662 10.8251 51.3478 12.1745 50.511 13.2788C49.6741 14.3832 48.4697 15.143 46.8976 15.5585L52.9497 24.798H48.915L43.1139 15.9395ZM38.6173 12.9628H44.0127C45.4383 12.9628 46.5337 12.6475 47.2988 12.0169C48.0639 11.3862 48.4465 10.471 48.4465 9.271C48.4465 8.07402 48.0632 7.15724 47.2988 6.52737C46.5344 5.89751 45.4383 5.58144 44.0127 5.58144H38.6173V12.9628Z" fill="white"/>
<path d="M66.789 21.4425C67.6274 20.7297 68.1803 19.712 68.4478 18.3895H71.642C71.3536 20.4816 70.5063 22.1508 69.1001 23.3971C67.6939 24.6434 65.802 25.2688 63.4245 25.2732C61.6312 25.2732 60.0622 24.9221 58.7172 24.2197C57.4064 23.5386 56.3355 22.4724 55.6486 21.1645C54.9328 19.8301 54.5756 18.2431 54.5771 16.4035C54.5409 14.7683 54.9147 13.1501 55.6643 11.6963C56.3522 10.3885 57.4081 9.31083 58.7016 8.5963C60.0723 7.85555 61.6112 7.48182 63.169 7.51139C65.7931 7.51139 67.865 8.28623 69.3848 9.83587C70.9045 11.3855 71.6853 13.5665 71.7272 16.3789H57.8296V16.5358C57.8296 18.3962 58.3153 19.8585 59.2866 20.9224C60.2579 21.9864 61.6328 22.5192 63.4111 22.5206C64.8262 22.5162 65.9522 22.1568 66.789 21.4425ZM59.5847 11.6291C58.6328 12.5391 58.0747 13.7794 57.9103 15.35H68.4456C68.2961 13.8183 67.7641 12.5884 66.8496 11.6605C65.935 10.7325 64.7089 10.267 63.1712 10.264C61.7277 10.264 60.5322 10.719 59.5847 11.6291Z" fill="white"/>
<path d="M89.1485 9.1791C90.1303 10.2954 90.6212 11.9489 90.6212 14.1396V24.807H87.427V14.9152C87.427 13.4208 87.1064 12.2888 86.4653 11.5193C85.8243 10.7497 84.8425 10.3626 83.52 10.3581C82.7191 10.3563 81.9304 10.5535 81.2246 10.932C80.494 11.3192 79.8826 11.8981 79.456 12.6064C78.9889 13.3988 78.7558 14.3073 78.7836 15.2267V24.807H75.5894V7.97989H78.7836V13.9648C78.7515 12.7575 79.0293 11.5621 79.5905 10.4926C80.0933 9.55555 80.8582 8.78521 81.7917 8.27577C82.7439 7.7637 83.8107 7.50221 84.8918 7.51589C86.7478 7.50842 88.1667 8.06282 89.1485 9.1791Z" fill="white"/>
<path d="M109.443 8.55812C110.612 9.29682 111.535 10.3655 112.095 11.629C112.726 12.9739 113.041 14.5863 113.041 16.4662C113.041 18.3461 112.715 19.948 112.064 21.272C111.49 22.5113 110.562 23.5527 109.396 24.2645C108.158 24.9875 106.736 25.3357 105.304 25.2669C103.872 25.1981 102.49 24.7152 101.327 23.8767C100.055 22.9457 99.2645 21.5403 98.9552 19.6604V32.8607H95.761V7.97981H98.9552V13.1801C99.2645 11.36 100.03 9.95907 101.251 8.97729C102.46 7.99891 103.975 7.47753 105.53 7.5046C106.908 7.4785 108.265 7.84381 109.443 8.55812ZM108.374 20.7767C109.313 19.7007 109.783 18.2325 109.784 16.3721C109.786 14.5116 109.305 13.0494 108.343 11.9854C107.382 10.9214 106.105 10.3887 104.512 10.3872C103.543 10.3817 102.588 10.6224 101.737 11.0866C100.868 11.5627 100.148 12.2713 99.6591 13.1331C99.1099 14.1223 98.8374 15.2411 98.87 16.3721C98.8378 17.5171 99.1283 18.648 99.7084 19.6357C100.226 20.5069 100.971 21.22 101.865 21.6979C102.717 22.1573 103.671 22.3969 104.64 22.395C106.189 22.3906 107.434 21.8511 108.374 20.7767Z" fill="white"/>
<path d="M130.545 9.17903C131.527 10.2953 132.018 11.9488 132.018 14.1395V24.8069H128.826V14.9151C128.826 13.4207 128.506 12.2888 127.865 11.5192C127.223 10.7496 126.241 10.3626 124.917 10.3581C124.117 10.3563 123.329 10.5535 122.624 10.9319C121.893 11.3192 121.282 11.898 120.855 12.6063C120.388 13.3988 120.155 14.3073 120.183 15.2267V24.8069H116.989V0H120.183V13.9535C120.151 12.7465 120.428 11.5513 120.987 10.4814C121.492 9.54457 122.257 8.77443 123.191 8.2645C124.143 7.75243 125.21 7.49094 126.291 7.50462C128.145 7.50462 129.564 8.06275 130.545 9.17903Z" fill="white"/>
<path d="M150.843 7.97986L141.625 32.8608H138.375L141.137 25.5422L134.562 7.97986H137.848L140.919 16.1973L142.748 21.967L144.577 16.2287L147.586 7.97986H150.843Z" fill="white"/>
<path d="M164.021 10.8377C163.173 10.2908 162.078 10.0166 160.734 10.0151C159.431 10.0151 158.408 10.2579 157.664 10.7436C156.919 11.2293 156.546 11.8756 156.543 12.6825C156.535 12.9322 156.591 13.1798 156.705 13.4021C156.819 13.6244 156.988 13.8141 157.195 13.9535C157.691 14.2903 158.25 14.5229 158.838 14.6371C159.5 14.7866 160.409 14.9308 161.566 15.0697C162.883 15.2034 164.189 15.4281 165.475 15.7422C166.444 15.9918 167.336 16.4743 168.076 17.1476C168.797 17.8111 169.159 18.7518 169.16 19.9697C169.16 21.7271 168.457 23.0503 167.051 23.9395C165.645 24.8286 163.745 25.2732 161.351 25.2732C158.58 25.2732 156.414 24.7718 154.85 23.7691C153.287 22.7664 152.507 21.2519 152.51 19.2255H155.828C155.826 19.7771 155.979 20.3181 156.269 20.787C156.56 21.2558 156.976 21.6336 157.471 21.8772C158.527 22.4466 159.861 22.7305 161.472 22.729C162.918 22.729 164.009 22.5049 164.745 22.0162C165.088 21.8134 165.371 21.5226 165.564 21.1739C165.758 20.8251 165.855 20.4311 165.845 20.0325C165.858 19.753 165.801 19.4747 165.679 19.223C165.556 18.9713 165.373 18.7541 165.146 18.5912C164.621 18.223 164.025 17.9694 163.395 17.847C162.691 17.6976 161.73 17.5369 160.51 17.3651C159.227 17.2258 157.954 17.0012 156.7 16.6926C155.766 16.4598 154.904 16.0019 154.189 15.3589C153.496 14.7283 153.149 13.8317 153.149 12.6691C153.138 11.6944 153.461 10.7453 154.064 9.97923C154.751 9.13797 155.658 8.50399 156.684 8.14791C157.978 7.68858 159.346 7.46831 160.719 7.49786C163.259 7.49786 165.202 7.99922 166.547 9.00193C167.188 9.45334 167.707 10.056 168.059 10.7563C168.411 11.4566 168.584 12.233 168.564 13.0165H165.307C165.303 12.1154 164.868 11.3847 164.021 10.8377Z" fill="white"/>
</g>
<defs>
<clipPath id="clip0_4900_38780">
<rect width="169.169" height="48" fill="white"/>
</clipPath>
</defs>
</svg>
