<svg width="1270" height="236" viewBox="0 0 1270 236" fill="none" xmlns="http://www.w3.org/2000/svg">
<g clip-path="url(#clip0_4900_38778)">
<path d="M74.0189 151.916H31.3889V236H0.812866V25.4958H82.2509C105.967 25.4958 124.195 31.1798 136.935 42.5478C149.675 53.9158 156.045 69.2038 156.045 88.4118C156.045 103.504 152.027 116.342 143.991 126.926C136.151 137.314 124.783 144.468 109.887 148.388L167.217 236H128.997L74.0189 151.916ZM31.3889 123.692H82.5449C96.0689 123.692 106.457 120.752 113.709 114.872C120.961 108.796 124.587 100.074 124.587 88.7058C124.587 77.3378 120.961 68.7138 113.709 62.8338C106.457 56.7578 96.0689 53.7198 82.5449 53.7198H31.3889V123.692ZM266.552 214.244C279.88 214.244 290.464 210.912 298.304 204.248C306.34 197.388 311.632 187.686 314.18 175.142H344.462C341.718 194.938 333.682 210.814 320.354 222.77C307.026 234.53 289.092 240.41 266.552 240.41C249.5 240.41 234.604 237.078 221.864 230.414C209.32 223.75 199.618 214.146 192.758 201.602C186.094 188.862 182.762 173.77 182.762 156.326C182.762 139.274 186.192 124.378 193.052 111.638C199.912 98.8978 209.516 89.0978 221.864 82.2378C234.212 75.3778 248.324 71.9478 264.2 71.9478C289.092 71.9478 308.692 79.2978 323 93.9978C337.504 108.698 344.952 129.376 345.344 156.032H213.632V157.502C213.632 175.142 218.238 189.058 227.45 199.25C236.662 209.246 249.696 214.244 266.552 214.244ZM264.2 98.1138C250.48 98.1138 239.112 102.426 230.096 111.05C221.08 119.674 215.788 131.434 214.22 146.33H314.18C312.808 131.826 307.712 120.164 298.892 111.344C290.268 102.524 278.704 98.1138 264.2 98.1138ZM469.924 71.9478C487.564 71.9478 500.99 77.2398 510.202 87.8238C519.61 98.4078 524.314 114.088 524.314 134.864V236H494.032V142.214C494.032 128.102 490.994 117.42 484.918 110.168C478.842 102.72 469.532 98.9958 456.988 98.9958C449.344 98.9958 442.092 100.858 435.232 104.582C428.372 108.11 422.786 113.402 418.474 120.458C414.162 127.318 412.006 135.55 412.006 145.154V236H381.724V76.3578H412.006V133.1C412.006 120.36 414.554 109.384 419.65 100.172C424.746 90.9598 431.704 84.0018 440.524 79.2978C449.344 74.3978 459.144 71.9478 469.924 71.9478ZM665.836 71.9478C679.752 71.9478 692.1 75.2798 702.88 81.9438C713.66 88.6078 721.99 98.3098 727.87 111.05C733.946 123.79 736.984 139.078 736.984 156.914C736.984 174.75 733.848 189.94 727.576 202.484C721.5 215.028 713.072 224.534 702.292 231.002C691.708 237.274 679.948 240.41 667.012 240.41C651.724 240.41 638.004 236 625.852 227.18C613.896 218.36 606.448 205.032 603.508 187.196V312.44H573.226V76.3578H603.508V125.75C606.448 108.502 613.7 95.2718 625.264 86.0598C636.828 76.6518 650.352 71.9478 665.836 71.9478ZM657.31 213.068C672.01 213.068 683.77 207.972 692.59 197.78C701.606 187.588 706.114 173.672 706.114 156.032C706.114 138.392 701.508 124.574 692.296 114.578C683.28 104.386 671.226 99.2898 656.134 99.2898C646.726 99.2898 637.906 101.544 629.674 106.052C621.638 110.364 615.072 116.832 609.976 125.456C605.076 133.884 602.626 144.076 602.626 156.032C602.626 167.988 605.272 178.278 610.564 186.902C615.856 195.526 622.618 202.092 630.85 206.6C639.278 210.912 648.098 213.068 657.31 213.068ZM862.403 71.9478C880.043 71.9478 893.469 77.2398 902.681 87.8238C912.089 98.4078 916.793 114.088 916.793 134.864V236H886.511V142.214C886.511 128.102 883.473 117.42 877.397 110.168C871.321 102.72 862.011 98.9958 849.467 98.9958C841.823 98.9958 834.571 100.858 827.711 104.582C820.851 108.11 815.265 113.402 810.953 120.458C806.641 127.318 804.485 135.55 804.485 145.154V236H774.203V0.799805H804.485V133.1C804.485 120.36 807.033 109.384 812.129 100.172C817.225 90.9598 824.183 84.0018 833.003 79.2978C841.823 74.3978 851.623 71.9478 862.403 71.9478ZM1095.36 76.3578L1008.04 312.44H977.171L1003.34 243.056L941.009 76.3578H972.173L1001.28 154.268L1018.62 208.952L1035.97 154.562L1064.49 76.3578H1095.36ZM1232.77 124.28C1232.58 115.656 1228.46 108.796 1220.42 103.7C1212.39 98.4078 1202 95.7618 1189.26 95.7618C1176.91 95.7618 1167.21 98.1138 1160.15 102.818C1153.1 107.326 1149.57 113.402 1149.57 121.046C1149.57 126.142 1151.63 130.16 1155.74 133.1C1159.86 136.04 1165.05 138.196 1171.33 139.568C1177.6 140.94 1186.22 142.312 1197.2 143.684C1212.29 145.448 1224.64 147.604 1234.24 150.152C1243.85 152.7 1252.08 157.11 1258.94 163.382C1265.8 169.654 1269.23 178.572 1269.23 190.136C1269.23 206.796 1262.56 219.34 1249.24 227.768C1235.91 236.196 1217.88 240.41 1195.14 240.41C1168.88 240.41 1148.3 235.706 1133.4 226.298C1118.7 216.694 1111.35 202.288 1111.35 183.08H1142.81C1143.2 194.448 1148.39 202.876 1158.39 208.364C1168.39 213.656 1181.03 216.302 1196.32 216.302C1210.04 216.302 1220.33 214.048 1227.19 209.54C1234.24 205.032 1237.77 198.76 1237.77 190.724C1237.77 184.844 1235.52 180.336 1231.01 177.2C1226.7 173.868 1221.21 171.516 1214.54 170.144C1207.88 168.576 1198.77 167.008 1187.2 165.44C1172.5 163.676 1160.45 161.618 1151.04 159.266C1141.83 156.718 1133.89 152.504 1127.23 146.624C1120.76 140.548 1117.52 132.022 1117.52 121.046C1117.52 111.442 1120.37 102.916 1126.05 95.4678C1131.93 88.0198 1140.26 82.2378 1151.04 78.1218C1161.82 74.0058 1174.56 71.9478 1189.26 71.9478C1213.37 71.9478 1231.79 76.7498 1244.53 86.3538C1257.27 95.7618 1263.64 108.404 1263.64 124.28H1232.77Z" fill="#B6EEF1"/>
</g>
<defs>
<clipPath id="clip0_4900_38778">
<rect width="1270" height="236" fill="white"/>
</clipPath>
</defs>
</svg>
