<?xml version="1.0" encoding="utf-8"?>
<!-- Generator: Adobe Illustrator 25.0.1, SVG Export Plug-In . SVG Version: 6.00 Build 0)  -->
<svg version="1.0" id="katman_1" xmlns="http://www.w3.org/2000/svg" xmlns:xlink="http://www.w3.org/1999/xlink" x="0px" y="0px"
	 viewBox="0 0 237 170" style="enable-background:new 0 0 237 170;" xml:space="preserve">
<style type="text/css">
	.st0{fill:#F41C5E;}
</style>
<g>
	<path class="st0" d="M80.9,84.2c0-2.3-1.6-4.2-3.9-4.7C71.5,85.7,71,96,70.6,99.4c-0.2,4.1,3.9,4.2,3.9,4.2c4.7-1.2,4-4.8,4-4.8
		C78.1,98.5,78,98,78,97.6C78.1,96.6,80.9,85.2,80.9,84.2z"/>
	<path class="st0" d="M143,79.8c1,0,3.1-1.7,3.1-3c0-0.6-2.4-5.7-5.5-5.7c-1.1,0.1-2,1-2.2,2.1C138.4,74.8,139.7,79.8,143,79.8z"/>
	<path class="st0" d="M82.2,76.2c1,0,2.8-0.7,2.8-2c0-0.6-2.5-6.7-5.7-6.7c-1.1,0.1-2,1-2.2,2.1C77.1,71.2,77.4,76.2,82.2,76.2z"/>
	<path class="st0" d="M92.1,48.5C90.8,47,74,45.2,59.5,90.7c-0.1,0.2-0.2,0.3-0.4,0.2c-0.1,0-0.2-0.1-0.2-0.2
		c-2.3-12.1-1.3-25.8-1.6-28C56.7,57.2,52,59,52,59c-2.1,4.3-0.8,39.5,2.8,44.1c2.1,0.9,8.1,0.6,9.3-0.8
		C64.1,102.3,72.5,57.7,92.1,48.5z"/>
	<path class="st0" d="M182,81.1c-0.3,0.1-0.6,0.3-0.7,0.5c-5.1,9.1-9.7,16.4-13.6,16.7c-0.7,0.1-1.4-0.5-1.5-1.2v-0.1
		c-0.5-3.5,2.8-12.2,2.6-14.7c-0.1-0.9-0.6-0.8-1.1-1.2c-0.2,0.2-0.4,0.4-0.6,0.7c-0.1,0.1-0.2,0.2-0.4,0.1c-2.3-0.8-4.6-1.4-7-1.7
		c1.8-5,5.6-15.6,5.6-16.6c0-2.4-1.7-3.2-4.7-4c-4.7,8.3-7.8,19.7-8,20.6c-1.5,1.4-3.8,0.1-4.3,2.8c1.1,1.2,3.3,2.2,3.3,3.2
		c0,1-1.6,4.8-1,17.4c0.8,0.3,4.2-3.3,4.3-4.4c0.9-9.8,3.4-13.3,3.4-13.3c2.1,0.1,4.1,0,6.2-0.3c0,0,0.1,0,0.1,0.1c0,0,0,0,0,0.1
		c-0.6,1.1-3.9,8-3.9,11.1c0,4.1,1.3,6.4,4.7,6.7c0.7,0.1,1.5,0.1,2.2,0c4-0.6,7.6-2.7,10.2-5.8c0.1-0.1,0.3-0.1,0.4,0
		c0.1,0.1,0.1,0.2,0.1,0.3c-5,17.9-14.7,22.4-18.8,23.3c0.1,1.2,7.2,0.9,12.1-3.3c5.4-4.8,9.5-11.1,11.6-18c0.5-1.8,1.1-3.7,1.5-5.7
		c0.7-3.5,1.1-7,1.2-10.6C186,83.3,182.7,81.1,182,81.1z"/>
	<path class="st0" d="M148.5,101.2h-0.2c-5.2,0,0.9-18.5-6.5-17.5c-1.3,0.3-2.6,0.8-3.8,1.5c-0.1,0.1-0.3,0.2-0.3,0.3
		c-2.6,4.3-5.7,8.3-9.2,12c-0.3,0.3-0.9,0.4-1.2,0c-0.1-0.1-0.2-0.2-0.2-0.4c-2.7-8.7,9.2-34.3,9.3-34.8c0.9-2.9-3-4.2-5-4.5
		c-4.3,6.1-11.5,25.4-10.8,40.7c0,0.2-0.1,0.4-0.3,0.5c-1.2,0.5-5.6,2.1-5.1-1.5c0.1-0.9,2.2-6.5,2.2-7.4c0-0.6-2.6-4.2-4.6-4.2
		c-0.8,0-8.3,9.4-10.8,11.6c-0.4,0.3-0.9,0.3-1.2-0.1c-0.1-0.1-0.1-0.1-0.1-0.2c-1.3-3,1.9-11.2,11.2-14.3c0.9-0.7,1.6-1.5,2.4-2.4
		c0.1-0.2,0.2-0.5,0.1-0.7c-0.1-0.3-0.4-0.6-0.7-0.7c-5.2-2.4-16.7-2.1-18.7-2.3c1.4-6.6,6-17.2,6.1-18.3c0.2-1.6-1.4-3.1-4.6-4
		c-3.8,7.1-7,14.5-9.6,22.2c-0.9,0.9-2.2,0.5-3,3.1c0,1.2,1.9,2.4,1.9,3.5s-1.8,6.6-1.1,20.3c2.6,0.2,5.3-3.9,5.5-5.1
		c0.7-5.3,1.8-10.5,3.2-15.6c3.4,0,6.9-0.2,10.2-0.7c0.1,0,0.1,0,0.1,0.1c0,0,0,0.1,0,0.1c-5,4.2-9.7,8.3-9.6,16.1
		c0,3.2,3.4,5,5.3,5c3.3,0,6.8-3,8.4-4.8c0.2-0.2,0.5-0.3,0.8-0.1c0.1,0.1,0.2,0.2,0.2,0.4c0.4,2.7,2.7,4.6,5.4,4.5
		c2.2,0,5.5-2.1,6.8-2.8c0.1-0.1,0.2,0,0.3,0.1c0.8,1,2.5,2.7,4.1,2.7c4.8,0,9.7-7,12.4-11.3c0.1-0.2,0.5-0.3,0.7-0.2
		c0.1,0.1,0.2,0.2,0.2,0.3c1,4.6,1,11.2,5.7,11.2c1.5,0,2.9-0.3,4.2-0.8c0.5-0.1,0.7-0.6,0.6-1C149.4,101.3,148.9,101,148.5,101.2z"
		/>
</g>
</svg>
