<?xml version="1.0" encoding="utf-8"?>
<!-- Generator: Adobe Illustrator 24.1.0, SVG Export Plug-In . SVG Version: 6.00 Build 0)  -->
<svg version="1.1" id="Layer_1" xmlns="http://www.w3.org/2000/svg" xmlns:xlink="http://www.w3.org/1999/xlink" x="0px" y="0px"
	 viewBox="0 0 96 72" style="enable-background:new 0 0 96 72;" xml:space="preserve">
<style type="text/css">
	.st0{fill:#0057B7;}
	.st1{fill:#FFFFFF;}
</style>
<path class="st0" d="M6.05,62.15c0,0.98,0.8,1.78,1.78,1.78h80.35c0.98,0,1.78-0.8,1.78-1.78V9.85c0-0.98-0.8-1.78-1.78-1.78H7.83
	c-0.98,0-1.78,0.8-1.78,1.78V62.15z"/>
<path class="st1" d="M88.17,65.06H7.83c-1.61,0-2.91-1.31-2.91-2.91V9.85c0-1.61,1.31-2.91,2.91-2.91h80.35
	c1.61,0,2.91,1.31,2.91,2.91v52.3C91.09,63.76,89.78,65.06,88.17,65.06z M7.83,8.07c-0.98,0-1.78,0.8-1.78,1.78v52.3
	c0,0.98,0.8,1.78,1.78,1.78h80.35c0.98,0,1.78-0.8,1.78-1.78V9.85c0-0.98-0.8-1.78-1.78-1.78H7.83z"/>
<g>
	<path class="st1" d="M62.04,32c0.22-1.18-0.12-2.35-0.97-3.37c-1.31-1.58-3.67-2.59-6-2.59c-0.04,0-0.21,0-0.46,0
		c-1.51,0.01-6.09,0.04-8.36,0c-0.02-0.01-0.05,0.01-0.07,0.03c-0.02,0.02-0.03,0.04-0.03,0.07l-0.01,19.59
		c0,0.05,0.04,0.09,0.09,0.09L50,45.82c0.03,0,0.05-0.01,0.07-0.03c0.02-0.02,0.03-0.04,0.03-0.07l0.02-17.63c0,0,0-0.47,0.49-0.64
		c1.19-0.41,3.74-0.58,5.53,0.7c1.18,0.84,1.77,2.14,1.76,3.84c-0.01,1.33-0.48,2.42-1.42,3.22c-1.39,1.19-3.46,1.45-4.27,1.33
		c-0.03-0.01-0.06,0-0.08,0.02c-0.02,0.02-0.03,0.04-0.03,0.07l0.01,0.66c0,0.05,0.04,0.09,0.08,0.09
		C54.01,37.64,61.03,37.46,62.04,32z"/>
	<path class="st1" d="M68.21,25.78c-0.02-0.03-0.05-0.05-0.08-0.05c0,0,0,0,0,0c-0.03,0-0.07,0.02-0.08,0.05l-1.93,3.45
		c-0.01,0.03-0.02,0.06,0,0.08l3.25,7.61h-7.87c-0.03,0-0.06,0.02-0.08,0.05l-5.12,8.67c-0.02,0.03-0.02,0.07,0,0.09
		s0.05,0.05,0.08,0.05h3.41c0.04,0,0.07-0.02,0.09-0.06l3.46-7.69h6.52l3.65,7.65c0.02,0.03,0.05,0.05,0.08,0.05h4.36
		c0.03,0,0.06-0.02,0.08-0.04c0.02-0.03,0.02-0.06,0-0.09L68.21,25.78z"/>
	<path class="st1" d="M41.23,26.05c-0.03,0-0.06,0.01-0.08,0.04l-4.45,6.17l-2.82-6.15c-0.02-0.03-0.05-0.06-0.09-0.06h-4.65
		c-0.03,0-0.06,0.02-0.08,0.04c-0.02,0.03-0.02,0.06-0.01,0.09l4.72,10.13l-3.82,5.28l-6.59-15.49c-0.01-0.03-0.05-0.06-0.09-0.06
		h-4.93c-0.03,0-0.06,0.02-0.08,0.04c-0.02,0.03-0.02,0.06,0,0.09l9.88,19.94c0.01,0.03,0.04,0.05,0.08,0.05
		c0.03,0.01,0.06-0.01,0.08-0.04l6.28-7.94l4.12,8c0.01,0.03,0.04,0.05,0.08,0.05c0,0,0.01,0,0.01,0c0.03,0,0.06-0.01,0.08-0.04
		l2.25-2.92c0.02-0.03,0.02-0.06,0.01-0.09l-3.62-8.71l6.41-8.3c0.02-0.03,0.03-0.07,0.01-0.1c-0.02-0.03-0.05-0.05-0.08-0.05H41.23
		z"/>
</g>
</svg>
