<svg xmlns="http://www.w3.org/2000/svg" width="463.62" height="474" viewBox="0 0 463.62 474"><path d="M463.62,0V394H0V.61H7.65q224.7,0,449.39,0C459.23.58,461.43.2,463.62,0Zm-5.18,251.79H4.81V389H458.44ZM257.77,170.66c26.71,28,67.38,20.39,80-13.91a82.15,82.15,0,0,0,2.64-49C334.77,85.29,319.93,72.49,297,71.05c-15.72-1-29.2,4.46-40.32,18v-15H237.34V230h20.43Zm-131.71,14c0-26,1-51.62-.3-77.15-1-19.94-11.9-32-29.3-35.4S63,71.75,51,86.67a12.39,12.39,0,0,1-2.36,1.58V21.46H28.77v163H48.88c0-17-.22-33.61.07-50.21.22-12.78,1.31-25.59,10-36C66.62,89.14,76.68,86,88.23,88.7c10.5,2.45,15.24,10.49,16,20.25,1.18,16.11,1.31,32.31,1.69,48.48.21,9,0,18,0,27.2Zm92.81-19.92c-21.3,9.09-37.87,7-48.78-5.61-12.2-14.14-13.6-38.66-3.15-55.27,10-15.84,23.4-19,50.81-11.7q.84-8.5,1.64-16.65c-26.55-10.68-56.47-2.91-71.12,18.13-15.52,22.29-13.52,56,4.51,75.91,16.09,17.8,47.72,23.91,67.44,12.74C219.79,176.77,219.36,171.09,218.87,164.71ZM435.49,75.77C413.05,66.38,382,70.22,366,91.34c-16.54,21.77-16,55.92,1.46,76.49,16.32,19.21,47.61,25.88,69,14.5q-.78-8.47-1.59-17.34c-23.15,8.56-38.42,6.56-49-6.13-11.71-14.05-13.39-38.15-3.22-54.26,12.81-20.3,31.22-19.42,51.14-12.17C434.36,86.54,434.93,81.09,435.49,75.77Z" fill="#01457d"/><path d="M440.23,474c-2.46-1.83-6-3.22-3.12-7.32,14.53,4.55,20.2,1.85,19.81-9.41-10.21,4.72-16.4,4-20.69-2.43s-3.37-17.32,2.13-22.79c4.89-4.85,11.83-5,17.47-1l7.79-2.6v35.7L452.54,474Zm17-29.22c0-6.68-3.5-11.33-8.6-11.4s-8.65,4.68-8.63,11.3c0,6.2,3.69,10.86,8.51,10.81S457.25,450.79,457.26,444.78Z" fill="#01457d"/><path d="M223.52,474V428.83l7.5,1.89c7.25-3.77,14.08-3.23,18.4,2.06,4.61,5.65,4.77,17.05.32,23.19-4.27,5.89-10.58,6.58-20.6,2.13L227.21,474Zm5.67-29.2c0,6.5,3.8,11.29,8.86,11.29,4.78,0,8.59-5.08,8.64-11.56.06-6.68-3.57-11.29-8.79-11.15S229.15,438.32,229.19,444.8Z" fill="#01457d"/><path d="M452.54,474l11.08-9.85V474Z" fill="#fcfdfd"/><path d="M257.77,170.66V230H237.34V74.08h19.34v15c11.12-13.56,24.6-19,40.32-18,22.93,1.44,37.77,14.24,43.36,36.73a82.15,82.15,0,0,1-2.64,49C325.15,191.05,284.48,198.62,257.77,170.66Zm0-44.12c0,14.56,3.52,25.53,9.7,33.18,12.46,15.4,34.93,14.59,45.23-2.26C323.43,140,324,121.18,314.94,103c-9.48-19.07-35.1-20.66-48-3.59A46.47,46.47,0,0,0,257.79,126.54Z" fill="#fcfdfd"/><path d="M126.06,184.63H105.91c0-9.23.18-18.22,0-27.2-.38-16.17-.51-32.37-1.69-48.48-.72-9.76-5.46-17.8-16-20.25C76.68,86,66.62,89.14,59,98.28c-8.7,10.39-9.79,23.2-10,36-.29,16.6-.07,33.2-.07,50.21H28.77v-163H48.68V88.25A12.39,12.39,0,0,0,51,86.67C63,71.75,78.92,68.71,96.46,72.08s28.31,15.46,29.3,35.4C127,133,126.06,158.65,126.06,184.63Z" fill="#fcfdfd"/><path d="M218.87,164.71c.49,6.38.92,12.06,1.35,17.55-19.72,11.17-51.35,5.06-67.44-12.74-18-20-20-53.62-4.51-75.91,14.65-21,44.57-28.81,71.12-18.13q-.81,8.13-1.64,16.65c-27.41-7.33-40.84-4.14-50.81,11.7-10.45,16.61-9.05,41.13,3.15,55.27C181,171.73,197.57,173.8,218.87,164.71Z" fill="#fcfdfd"/><path d="M435.49,75.77c-.56,5.32-1.13,10.77-1.74,16.66-19.92-7.25-38.33-8.13-51.14,12.17-10.17,16.11-8.49,40.21,3.22,54.26,10.58,12.69,25.85,14.69,49,6.13q.81,8.88,1.59,17.34c-21.37,11.38-52.66,4.71-69-14.5-17.49-20.57-18-54.72-1.46-76.49C382,70.22,413.05,66.38,435.49,75.77Z" fill="#fcfdfd"/><path d="M99.9,429.82c-3.23,10.09-6.44,20.15-9.71,30.39h-7c-2.52-8-5-16-8-25.19-2.83,9.16-5.26,17.06-7.77,25.15h-7C57.23,450,54,439.93,50.65,429.38h6.49c2.2,7.67,4.42,15.44,7,24.58,2.86-9,5.32-16.72,7.84-24.62h7c2.33,7.41,4.73,15.07,7.73,24.64,2.41-8,4.53-14.3,6.15-20.69C93.86,429.41,95.65,428.11,99.9,429.82Z" fill="#01457d"/><path d="M140.84,460.27h-7c-2.47-7.83-4.9-15.57-7.34-23.3l-1.17-.08c-2.36,7.58-4.71,15.16-7.25,23.31l-6.84.31c-3.31-10.32-6.59-20.52-10-31.17h6.5l7,24.55c3-9.25,5.44-16.9,7.93-24.64h6.88c2.34,7.42,4.71,14.91,7.08,22.41l1.35.23c1.84-6.22,3.8-12.41,5.47-18.68,1-3.72,2.78-5.25,7-3.35C147.32,439.91,144.12,450,140.84,460.27Z" fill="#01457d"/><path d="M49.26,429.73c-3.32,10.4-6.48,20.3-9.72,30.43h-7c-2.48-7.89-5-15.86-7.91-25.13l-7.77,25.14h-7C6.6,450.08,3.39,440,0,429.42l6.37-.35c2.3,8,4.53,15.81,7.15,24.95,2.83-9,5.25-16.66,7.76-24.61h7.12c2.33,7.51,4.67,15.07,7.61,24.52,2.46-8.09,4.65-14.49,6.31-21C43.3,429.12,45.22,428.43,49.26,429.73Z" fill="#01457d"/><path d="M342.37,439.9c7.1-3.21,9.29-13.34,19-10.3l-13.31,13c5.51,6,10.55,11.52,15.88,17.33-12.14,3-13.49-9.14-21.17-13.27v13.38l-6.32.37V414.79l5.88-.59Z" fill="#01457d"/><path d="M191.27,460.1h-6c0-6.08.19-12-.07-17.87-.19-4.15-.84-8.54-6.4-8.81-5.3-.26-8.12,3.22-8.57,7.8-.61,6-.15,12.21-.15,18.76l-6.25.59V414.65l5.52-.27v17.5c1.8-.93,3-1.59,4.19-2.16,8.78-4.14,17,.28,17.67,9.9C191.64,446.31,191.27,453.05,191.27,460.1Z" fill="#01457d"/><path d="M393.7,428.45c9.32,0,15.64,6.43,15.74,15.93.11,9.67-6.51,16.66-15.8,16.69s-16.17-7-16.16-16.45C377.49,435,384.12,428.42,393.7,428.45Zm9.38,16.32c0-6.35-4.22-11.36-9.58-11.39s-9.66,5.11-9.68,11.38,4.24,11.33,9.68,11.35S403.08,451.31,403.08,444.77Z" fill="#01457d"/><path d="M322.78,429.39h6v31.47l-6.21-1.76.3-1.69a37.39,37.39,0,0,1-4.56,2.73c-8,3.35-15.46-.42-16.41-9-.77-7-.15-14.21-.15-21.7h5.71c0,6-.18,11.66.06,17.34.17,4.13.57,8.68,6.06,9.18s8.54-3.19,9.05-8C323.27,441.92,322.78,435.78,322.78,429.39Z" fill="#01457d"/><path d="M280.34,456.56c-1.08,1.37-1.9,3.49-3.28,4a15.79,15.79,0,0,1-17.46-5.84,18.25,18.25,0,0,1,0-20.23c3.51-4.93,11.18-7.71,17-5.68,1.42.5,2.24,2.7,2.86,4.77-6.23-.68-12.43-1.39-14.69,5a19.56,19.56,0,0,0,.48,13.24c2.51,5.66,8.35,4.75,13.57,3.3Z" fill="#01457d"/><path d="M216.63,434.32c-5-1.56-9.81-1.9-13.14,3.09a12.67,12.67,0,0,0-.54,13.93c3.28,5.84,8.67,5.1,14,3.84,2,3.66.8,5.33-3.09,5.73-6.8.71-12.73-.77-16.43-7a17.25,17.25,0,0,1-.09-18.59c3.72-6.28,9.83-7.7,16.47-6.67,1.63.25,2.94,2.62,4.39,4Z" fill="#01457d"/><path d="M420.53,430.47l10.94-2.61v5.07c-8.64,1.66-10.88,4.42-10.94,13.62,0,4.46,0,8.92,0,13.63h-5.89V428.7Z" fill="#01457d"/><path d="M296.74,446.11h-15c-.14-1.33-.28-2.76-.42-4.18C294.83,440.28,296.56,440.71,296.74,446.11Z" fill="#01457d"/><path d="M157.39,453.24v7l-6.36.31v-7Z" fill="#01457d"/><path d="M374.61,460.22h-6.43v-6.64h6.43Z" fill="#01457d"/><path d="M148.08,342.25c-6.5,1.56-12.93,4.6-19.2,4.31-14.13-.66-22.4-15-19.13-31.24,3.24-16,15-24.15,29.26-19.93,3.19.95,6,3,9.35,4.75l.57-4.44h9.12v6.44c0,12.31-.35,24.62.07,36.91.75,22-8.52,32.84-34.47,29.22-3.56-.5-7-1.75-10.65-2.68.44-3.24.78-5.83,1.18-8.79,9.45,3.31,18.8,7.45,28.17,1C146.77,354.77,148.29,349.4,148.08,342.25ZM119.46,322.5a46.25,46.25,0,0,0,1.58,6.73c2,5.63,5.72,9.35,12.1,9.54,6.58.2,10.88-3.29,13.21-9a24,24,0,0,0,1.74-9.5c-.31-10.7-6.47-18-14.59-17.94C125.65,302.39,119.63,310.36,119.46,322.5Z" fill="#01457d"/><path d="M426.75,301.15V272.31h9.41v74.27h-8.74c-.29-1.49-.62-3.19-1-5.19-.74.52-1.39.95-2,1.43-13.25,10.33-30.18,5.59-34.62-10.49a46.23,46.23,0,0,1-.74-21.05C392.68,294.07,411.26,289,426.75,301.15Zm-29.16,19.62c.83,3.54,1.2,7.26,2.58,10.56,3.94,9.44,14.52,12.24,20.58,4.83,3.32-4.05,5.3-10.14,5.67-15.46.73-10.57-6.23-18.43-14.62-18.39S398.2,309.33,397.59,320.77Z" fill="#01457d"/><path d="M101,344.69a36.61,36.61,0,0,1-25.55,2.13c-12.62-3.44-19.43-17.61-16.09-33,2.53-11.66,10.39-18.77,21.42-19.36,16.34-.86,25.72,10.24,24,29.12H69.53c.55,15.3,11.09,19.36,31.5,12.49ZM94.43,316c-.45-8.91-5-13.75-12.11-13.66-7.39.1-12.25,5.34-12.46,13.66Z" fill="#01457d"/><path d="M379.54,344.74A37.24,37.24,0,0,1,354.7,347a23.33,23.33,0,0,1-5.1-2c-10.75-5.56-15.49-21.51-10.53-35.23,4.12-11.39,15.22-17.38,27.6-14.88,11.71,2.37,18,13,16.59,28.72H348c.68,15.37,11.55,19.52,31.53,12.42ZM373.22,316c-.86-9.18-5.2-13.81-12.31-13.71-7.32.09-12.24,5.4-12.61,13.71Z" fill="#01457d"/><path d="M297.33,344.77c-8.86,3.8-17.79,4.67-26.92,1.48-11.72-4.1-14.86-13.71-15.43-24.75-1-18.44,13.68-30.75,30.92-26.23,9.82,2.57,13.41,10,15,18.89a85.62,85.62,0,0,1,.62,9.15H266.1c-.9,14.68,10.78,19.28,31.23,12.75Zm-31.57-28.92h25.11c1-7.09-4.94-13.21-11.4-13.54C272.17,301.94,267.15,306.76,265.76,315.85Z" fill="#01457d"/><path d="M229.05,303.75l-11.1-.52v-7.66h10.94V284l9.71-3.2v14.45H252v7.87l-12.87.68c0,9.93-.4,19.51.14,29,.37,6.54,4.69,8.22,13.62,6.15v8.42c-4.5,0-8.92.51-13.17-.12-6.17-.92-9.85-4.95-10.13-11.3-.37-8.37-.36-16.77-.49-25.15C229,308.66,229.05,306.46,229.05,303.75Z" fill="#01457d"/><path d="M214.73,295.61c-.53,3.81-.85,6.16-1.17,8.5-4-.6-7.67-1.87-11.12-1.43-2.57.33-6.29,2.48-6.85,4.54s1.82,5.48,3.86,7.2c2.57,2.17,6.17,3.08,9.2,4.76,6.42,3.55,9.14,8.7,8.15,15.06-1.09,7-5,12-12,12.89-6.26.81-12.73,0-19.34-.07v-9.49c4.31.84,8.46,2.48,12.45,2.15,2.9-.24,6.73-2.42,8.12-4.89,2.06-3.64-1.17-6.37-4.41-8.16-3.4-1.87-6.92-3.52-10.27-5.47-5.13-3-7.25-7.56-6.5-13.47.78-6.12,4.11-10.88,9.94-11.88C201,294.78,207.51,295.61,214.73,295.61Z" fill="#01457d"/><path d="M28.66,295.64h8.26l.84,6c5.24-6,11.24-8.88,19.05-6.31v7.33c-13.8.77-18.59,6-19,21.1-.2,7.52,0,15.06,0,22.89H28.66Z" fill="#01457d"/><path d="M316.61,346.76h-9.19v-51h8.27c.11,1.87.21,3.62.37,6.36,5.38-6.36,11.37-9.39,19.29-6.71v6.37c-4.67,1.64-10.41,2-13,5-3.26,3.86-5,9.78-5.53,15C316,329.79,316.61,338,316.61,346.76Z" fill="#01457d"/><path d="M176.94,346.69h-8.53V295.85h8.53Z" fill="#01457d"/><path d="M167.52,273.7h10v10.42h-10Z" fill="#01457d"/><path d="M257.79,126.54A46.47,46.47,0,0,1,267,99.36c12.87-17.07,38.49-15.48,48,3.59,9.06,18.23,8.49,37-2.22,54.51-10.3,16.85-32.77,17.66-45.23,2.26C261.31,152.07,257.8,141.1,257.79,126.54Z" fill="#01457d"/></svg>